<svg xmlns="http://www.w3.org/2000/svg" viewBox="0 0 239.58 197.29"><defs><style>.cls-1{fill:#111f35;}.cls-2{fill:#ef434c;}.cls-3{fill:#008bea;}.cls-4{fill:#96cc00;}</style></defs><g id="Layer_2" data-name="Layer 2"><g id="Layer_1-2" data-name="Layer 1"><path class="cls-1" d="M140.94,197.29c-26.65,0-52.78-11.38-71.68-31.22-17.55-18.43-27.05-42-27-66.72L84.91,124c9.87,22.21,31.32,36,56.22,36h0c21,0,39.51-9.9,50.9-27.15C204.81,113.84,206,90.32,195.1,69.9s-31.17-32.81-54.16-32.81h-.31a61.11,61.11,0,0,0-17.35,2.58L84.84,17.49A95.8,95.8,0,0,1,140.22,0a101.08,101.08,0,0,1,60.7,20.46,96,96,0,0,1,36,55.79c6,24.4,1.67,51.2-12,73.58s-35.44,38.53-59.83,44.34a95.67,95.67,0,0,1-24.18,3.12Z"/><rect class="cls-2" x="43.02" y="58.65" width="79.9" height="18.11" rx="9.05" transform="translate(120.98 167.82) rotate(-150)"/><path class="cls-3" d="M79.27,98.65a62.1,62.1,0,0,1,.89-10.37L13.57,49.84a9.05,9.05,0,0,0-9,15.68l75.67,43.69A62.27,62.27,0,0,1,79.27,98.65Z"/><path class="cls-4" d="M111.84,44.29,62.08,15.55A9.05,9.05,0,0,0,53,31.23l43.23,25A61.73,61.73,0,0,1,111.84,44.29Z"/></g></g></svg>