<svg xmlns="http://www.w3.org/2000/svg" viewBox="0 0 391.62 117.11"><defs><style>.cls-1{fill:#fff;}.cls-2{fill:#ef434c;}.cls-3{fill:#008bea;}.cls-4{fill:#96cc00;}</style></defs><g id="Layer_2" data-name="Layer 2"><g id="Layer_1-2" data-name="Layer 1"><path class="cls-1" d="M140.43,82.88v34.23H122.12V58.42a40,40,0,0,1,4.43-19.2A30.67,30.67,0,0,1,139,26.66a38.93,38.93,0,0,1,18.93-4.43A41,41,0,0,1,173,24.84a30.7,30.7,0,0,1,11.13,7.44,33.74,33.74,0,0,1,7.08,11.49,41.41,41.41,0,0,1,2.48,14.52A36.8,36.8,0,0,1,189.6,76a30.57,30.57,0,0,1-11.19,11.78,34.79,34.79,0,0,1-25.74,3.06A23.46,23.46,0,0,1,140.43,82.88ZM157.9,37.72a16.23,16.23,0,0,0-9.13,2.57,16.49,16.49,0,0,0-5.93,7,23.28,23.28,0,0,0-2,9.77,22.68,22.68,0,0,0,2,9.72,16.41,16.41,0,0,0,5.92,6.93,16.21,16.21,0,0,0,9.13,2.58A16,16,0,0,0,167,73.72a17.14,17.14,0,0,0,5.9-6.92A22.06,22.06,0,0,0,175,57.07a22.61,22.61,0,0,0-2.08-9.78,17,17,0,0,0-5.91-7A16,16,0,0,0,157.9,37.72Z"/><path class="cls-1" d="M206.16,90.43v-14h32a6.18,6.18,0,0,0,3.06-.77,6.09,6.09,0,0,0,2.21-2.13,5.49,5.49,0,0,0,.87-3,5.74,5.74,0,0,0-.87-3.11,6,6,0,0,0-5.27-2.9H226a31,31,0,0,1-11.72-2.13,17.25,17.25,0,0,1-8-6.53c-2-3-2.95-6.91-2.95-11.76A19.44,19.44,0,0,1,206,34a21,21,0,0,1,7.5-7.37A20.43,20.43,0,0,1,224,23.85h32V38H227.25a5.71,5.71,0,0,0-4.06,1.56,5.61,5.61,0,0,0,0,8,5.57,5.57,0,0,0,4.08,1.66h11.86a32.35,32.35,0,0,1,12.52,2.19,16.9,16.9,0,0,1,7.9,6.58c1.88,3,2.83,7,2.83,11.91a19.49,19.49,0,0,1-2.84,10.25,21.83,21.83,0,0,1-7.64,7.52,20.94,20.94,0,0,1-10.74,2.78Z"/><path class="cls-1" d="M293.15,90.43c-6,0-10.72-1.7-14-5.07s-5-8-5-13.86V7h18.45V23.85h14.83V38.39H292.53v31.9a5.19,5.19,0,0,0,5.2,5.2h13.81V90.43Z"/><path class="cls-1" d="M349.77,92.05a29.47,29.47,0,0,1-15.46-4.5,30.67,30.67,0,0,1-10.48-12.23,39.7,39.7,0,0,1-3.78-17.57,37.19,37.19,0,0,1,4.42-18.19A32.81,32.81,0,0,1,337,26.91a38.11,38.11,0,0,1,19.24-4.68c7.46,0,13.88,1.55,19.1,4.61a31.4,31.4,0,0,1,12.05,12.57,38,38,0,0,1,4.23,17.93V90.43H373.71V79.38a19.73,19.73,0,0,1-6,7.42C365.73,88.33,360.54,92.05,349.77,92.05ZM356,38a16.65,16.65,0,0,0-9.2,2.56,16.34,16.34,0,0,0-6,7,22.46,22.46,0,0,0-2,9.57,23.71,23.71,0,0,0,2,9.84,16.3,16.3,0,0,0,6,7.09,16.64,16.64,0,0,0,9.2,2.57A16,16,0,0,0,365,74a16.39,16.39,0,0,0,5.93-7.08,23.71,23.71,0,0,0,2-9.84,22.49,22.49,0,0,0-2-9.57A16.58,16.58,0,0,0,365,40.56,16,16,0,0,0,356,38Z"/><path class="cls-1" d="M66.26,92.75a46.88,46.88,0,0,1-33.7-14.68A45.11,45.11,0,0,1,19.86,46.7L39.92,58.28A28.4,28.4,0,0,0,66.35,75.19h0A28.16,28.16,0,0,0,90.28,62.43a28.31,28.31,0,0,0,1.44-29.57A28.46,28.46,0,0,0,66.26,17.44h-.15A28.3,28.3,0,0,0,58,18.66L39.88,8.22A45.11,45.11,0,0,1,65.92,0,47.55,47.55,0,0,1,94.46,9.62a45.18,45.18,0,0,1,16.92,26.23,45.84,45.84,0,0,1-5.63,34.59A45.8,45.8,0,0,1,77.62,91.28a44.83,44.83,0,0,1-11.36,1.47Z"/><rect class="cls-2" x="20.23" y="27.57" width="37.56" height="8.51" rx="4.26" transform="matrix(-0.87, -0.5, 0.5, -0.87, 56.87, 78.89)"/><path class="cls-3" d="M37.27,46.38a29,29,0,0,1,.41-4.88L6.38,23.43A4.26,4.26,0,0,0,2.12,30.8L37.7,51.34A29,29,0,0,1,37.27,46.38Z"/><path class="cls-4" d="M52.58,20.82,29.18,7.31a4.25,4.25,0,1,0-4.25,7.37L45.25,26.42A28.88,28.88,0,0,1,52.58,20.82Z"/></g></g></svg>